# xmcd CD database file
#
# Track frame offsets:
#	150
#	20554
#	39781
#	56516
#	72218
#	93350
#	114735
#	130256
#	145083
#	169759
#	191610
#	210985
#
# Disc length: 3102 seconds
#
# Revision: 1
# Processed by: cddbd v1.5.2PL0 Copyright (c) Steve Scherf et al.
# Submitted via: CDex 1.70beta2
#
DISCID=a00c1c0c
DTITLE=Raul Malo - Lucky One
DYEAR=2008
DGENRE=Country
TTITLE0=Lucky One
TTITLE1=Moonlight Kiss
TTITLE2=Something Tells Me
TTITLE3=Hello Again
TTITLE4=Ready For My Lovin'
TTITLE5=Crying For You
TTITLE6=You Always Win
TTITLE7=Lonely Hearts
TTITLE8=One More Angel
TTITLE9=Rosalie
TTITLE10=Haunting Me
TTITLE11=So Beautiful
EXTD=YEAR: 2008
EXTT0=
EXTT1=
EXTT2=
EXTT3=
EXTT4=
EXTT5=
EXTT6=
EXTT7=
EXTT8=
EXTT9=
EXTT10=
EXTT11=
PLAYORDER=
